<svg width="32" height="32" viewBox="0 0 32 32" fill="none" xmlns="http://www.w3.org/2000/svg">
<path fill-rule="evenodd" clip-rule="evenodd" d="M16.0004 0C19.8959 0 23.0699 3.08703 23.2105 6.94818H26.1943C27.2877 6.94822 28.1741 7.83462 28.1742 8.92806V23.9135C28.1741 27.2749 25.4491 30 22.0877 30H9.91464C6.55321 30 3.82823 27.2749 3.82812 23.9135V8.92806C3.82817 7.83462 4.71457 6.94823 5.80801 6.94818H8.79029C8.9309 3.08703 12.1049 0 16.0004 0ZM19.0885 21.3005C18.8501 20.9224 18.3212 20.8661 18.0086 21.1854L14.9366 24.3242C14.5081 24.7622 14.8184 25.5003 15.4313 25.5003H20.4821C21.0267 25.5003 21.3579 24.9 21.0676 24.4392L19.0885 21.3005ZM16.2167 10.9179C15.8876 10.7661 15.4598 10.8657 15.161 11.1637L9.77544 16.5347C9.47367 16.8357 9.374 17.2683 9.5304 17.5988L12.2408 23.3245C12.4784 23.8259 13.1788 23.8705 13.6363 23.4131L22.0735 14.9755C22.5334 14.5155 22.4858 13.811 21.9788 13.5769L16.2167 10.9179ZM16.0004 2.2579C13.3521 2.2579 11.189 4.33448 11.0501 6.94818H20.9507C20.8118 4.33448 18.6487 2.2579 16.0004 2.2579Z" fill="white"/>
</svg>
