<svg width="20" height="20" viewBox="0 0 20 20" fill="none" xmlns="http://www.w3.org/2000/svg">
<path d="M3.2623 5.52695C3.10505 6.0657 3.08637 6.63544 3.20801 7.18333C2.73297 7.48396 2.34168 7.89986 2.07055 8.39232C1.79941 8.88479 1.65723 9.43783 1.65723 10C1.65723 10.5622 1.79941 11.1152 2.07055 11.6077C2.34168 12.1001 2.73297 12.516 3.20801 12.8167C3.08637 13.3646 3.10505 13.9343 3.2623 14.4731C3.41956 15.0118 3.7103 15.5021 4.10756 15.8986C4.50483 16.295 4.99576 16.5847 5.53484 16.7408C6.07393 16.897 6.6437 16.9144 7.19134 16.7917C7.49237 17.2649 7.90794 17.6545 8.39957 17.9244C8.89119 18.1944 9.44298 18.3359 10.0038 18.3359C10.5647 18.3359 11.1165 18.1944 11.6081 17.9244C12.0997 17.6545 12.5153 17.2649 12.8163 16.7917C13.3642 16.9133 13.934 16.8946 14.4727 16.7374C15.0115 16.5801 15.5018 16.2894 15.8982 15.8921C16.2947 15.4948 16.5844 15.0039 16.7405 14.4648C16.8966 13.9257 16.9141 13.356 16.7913 12.8083C17.2628 12.5069 17.6507 12.0917 17.9194 11.6009C18.1882 11.1101 18.329 10.5595 18.329 10C18.329 9.44046 18.1882 8.88992 17.9194 8.39913C17.6507 7.90834 17.2628 7.49309 16.7913 7.19167C16.9147 6.64319 16.8972 6.07244 16.7407 5.5325C16.5842 4.99256 16.2937 4.50097 15.8962 4.10346C15.4987 3.70595 15.0071 3.41543 14.4672 3.25893C13.9272 3.10242 13.3565 3.08502 12.808 3.20833C12.5066 2.73692 12.0913 2.34897 11.6005 2.08024C11.1098 1.81151 10.5592 1.67065 9.99967 1.67065C9.44013 1.67065 8.88959 1.81151 8.3988 2.08024C7.90801 2.34897 7.49276 2.73692 7.19134 3.20833C6.6437 3.08555 6.07393 3.10304 5.53484 3.25916C4.99576 3.41529 4.50483 3.705 4.10756 4.10143C3.7103 4.49787 3.41956 4.9882 3.2623 5.52695Z" fill="#28A745"/>
<path d="M7.5 9.99992L9.16667 11.6666L12.5 8.33325" stroke="#F3F5F7" stroke-linecap="round" stroke-linejoin="round"/>
</svg>
